<svg width="20" height="20" viewBox="0 0 20 20" fill="none" xmlns="http://www.w3.org/2000/svg">
<path d="M10 2.8823L5.06295 8.59518C4.65046 9.07249 3.9148 9.13698 3.41981 8.73922C2.92482 8.34146 2.85795 7.63208 3.27044 7.15477L9.10375 0.404791C9.57017 -0.13493 10.4298 -0.13493 10.8963 0.404791L16.7296 7.15477C17.1421 7.63208 17.0752 8.34146 16.5802 8.73922C16.0852 9.13698 15.3495 9.07249 14.9371 8.59518L10 2.8823Z" fill="#9999EE"/>
<path d="M0.0910756 9.40369C-0.217015 8.74267 0.294302 8 1.05749 8H18.9425C19.7057 8 20.217 8.74261 19.909 9.40362L15.8049 18.2109C15.2981 19.2983 14.161 20 12.9055 20H7.09532C5.83992 20 4.70288 19.2984 4.19608 18.2111L0.0910756 9.40369Z" fill="#E9E9FF"/>
<path fill-rule="evenodd" clip-rule="evenodd" d="M10 17C11.6569 17 13 15.8807 13 14.5C13 13.1193 11.6569 12 10 12C8.34315 12 7 13.1193 7 14.5C7 15.8807 8.34315 17 10 17Z" fill="#9999EE"/>
</svg>
