<svg width="49" height="32" viewBox="0 0 49 32" fill="none" xmlns="http://www.w3.org/2000/svg">
<mask id="mask0_171_7962" style="mask-type:alpha" maskUnits="userSpaceOnUse" x="0" y="0" width="49" height="32">
<rect width="49" height="32" fill="#C4C4C4"/>
</mask>
<g mask="url(#mask0_171_7962)">
<path fill-rule="evenodd" clip-rule="evenodd" d="M25 31.3854C33.8366 31.3854 41 24.293 41 15.544C41 6.79504 33.8366 -0.297398 25 -0.297398C16.1634 -0.297398 9 6.79504 9 15.544C9 24.293 16.1634 31.3854 25 31.3854ZM27.4696 11.9422C28.8334 10.5917 28.8334 8.40236 27.4696 7.05195C26.1057 5.70157 23.8944 5.70157 22.5305 7.05195C21.1666 8.40236 21.1666 10.5917 22.5305 11.9422L25 14.3872L27.4696 11.9422ZM28.638 17.9891C30.0019 19.3395 32.2132 19.3395 33.5771 17.9891C34.941 16.6387 34.941 14.4494 33.5771 13.099C32.2132 11.7486 30.0019 11.7486 28.638 13.099L26.1685 15.5441L28.638 17.9891ZM27.4696 24.0361C28.8334 22.6857 28.8334 20.4963 27.4696 19.1459L25 16.7009L22.5305 19.1459C21.1666 20.4963 21.1666 22.6857 22.5305 24.0361C23.8944 25.3864 26.1057 25.3864 27.4696 24.0361ZM16.4229 17.9891C15.059 16.6387 15.059 14.4494 16.4229 13.099C17.7869 11.7486 19.9981 11.7486 21.3621 13.099L23.8316 15.5441L21.3621 17.9891C19.9981 19.3395 17.7869 19.3395 16.4229 17.9891Z" fill="white"/>
</g>
</svg>
