<svg width="20" height="20" viewBox="0 0 20 20" fill="none" xmlns="http://www.w3.org/2000/svg">
<g clip-path="url(#clip0_171_7968)">
<path d="M16.2354 10L13.2354 15.1962L16.492 16.6936C17.4304 17.1252 18.5431 16.7711 19.0596 15.8765L19.7367 14.7037C20.2532 13.8092 20.0035 12.6685 19.1605 12.0716L16.2354 10Z" fill="#E9E9FF"/>
<path d="M3.7952 10L6.7952 15.1962L3.53859 16.6936C2.60013 17.1252 1.48744 16.7711 0.970981 15.8765L0.293855 14.7037C-0.222604 13.8092 0.0270855 12.6685 0.870031 12.0716L3.7952 10Z" fill="#E9E9FF"/>
<path d="M7 5H13L12.6801 1.80099C12.5779 0.77859 11.7175 0 10.69 0H9.30998C8.28247 0 7.42214 0.778589 7.3199 1.80099L7 5Z" fill="#E9E9FF"/>
<path d="M7 15H13L12.6801 18.199C12.5779 19.2214 11.7175 20 10.69 20H9.30998C8.28247 20 7.42214 19.2214 7.3199 18.199L7 15Z" fill="#E9E9FF"/>
<path d="M6.77281 4.77624L3.77281 9.97239L0.868898 7.91394C0.0264956 7.3168 -0.222842 6.17653 0.293447 5.28229L0.971386 4.10807C1.48767 3.21383 2.59985 2.85963 3.53819 3.2906L6.77281 4.77624Z" fill="#E9E9FF"/>
<path d="M13.2577 4.77624L16.2577 9.97239L19.1617 7.91394C20.0041 7.3168 20.2534 6.17653 19.7371 5.28229L19.0592 4.10807C18.5429 3.21383 17.4307 2.85963 16.4924 3.2906L13.2577 4.77624Z" fill="#E9E9FF"/>
<circle cx="10" cy="10" r="7" fill="#E9E9FF"/>
<circle cx="10" cy="10" r="4" fill="#9999EE"/>
</g>
<defs>
<clipPath id="clip0_171_7968">
<rect width="20" height="20" fill="white"/>
</clipPath>
</defs>
</svg>
